<svg height="250" viewBox="0 0 105.83333 66.145886" width="400" xmlns="http://www.w3.org/2000/svg"><g fill="#ffe168" transform="translate(-.003409 -.002314)"><circle cx="53.173584" cy="33.167381" r="22.1845"/><rect height="8.572632" ry="1.061295" width="2.12259" x="53.377384" y="57.277"/><rect height="8.572632" ry="1.061295" transform="matrix(.70710678 -.70710678 .70710678 .70710678 0 0)" width="2.12259" x="10.083256" y="85.041283"/><rect height="8.572632" ry="1.061295" transform="matrix(.25881905 -.96592583 .96592583 .25881905 0 0)" width="2.12259" x="-19.333153" y="84.162666"/><rect height="8.572632" ry="1.061295" transform="matrix(-.25881905 -.96592583 .96592583 -.25881905 0 0)" width="2.12259" x="-44.736908" y="66.970482"/><rect height="8.572632" ry="1.061295" transform="matrix(-.70710678 -.70710678 .70710678 -.70710678 0 0)" width="2.12259" x="-58.200134" y="38.210041"/><rect height="8.572632" ry="1.061295" transform="scale(-1)" width="2.12259" x="-54.200272" y="-8.873461"/><rect height="8.572632" ry="1.061295" transform="matrix(-.70710678 .70710678 -.70710678 -.70710678 0 0)" width="2.12259" x="-16.961073" y="-36.685749"/><rect height="8.572632" ry="1.061295" transform="matrix(-.17247536 .98501383 -.98501383 -.17247536 0 0)" width="2.12259" x="21.472845" y="-33.810787"/><rect height="8.572632" ry="1.061295" transform="matrix(.70710678 .70710678 -.70710678 .70710678 0 0)" width="2.12259" x="65.396637" y="9.446353"/><rect height="8.572632" ry="1.061295" transform="matrix(.5 .8660254 -.8660254 .5 0 0)" width="2.12259" x="50.463188" y="-5.779677"/></g></svg>