<svg height="250" viewBox="0 0 105.83333 66.145886" width="400" xmlns="http://www.w3.org/2000/svg"><g transform="translate(-.020538 -.01453)"><circle cx="51.596889" cy="37.381355" fill="#ffe168" r="22.1845"/><rect fill="#ffe168" height="8.572632" ry="1.061295" transform="matrix(-.25881905 -.96592583 .96592583 -.25881905 0 0)" width="2.12259" x="-48.39922" y="64.356865"/><rect fill="#ffe168" height="8.572632" ry="1.061295" transform="matrix(-.70710678 -.70710678 .70710678 -.70710678 0 0)" width="2.12259" x="-60.06498" y="34.115429"/><rect fill="#ffe168" height="8.572632" ry="1.061295" transform="scale(-1)" width="2.12259" x="-52.623577" y="-13.087437"/><rect fill="#ffe168" height="8.572632" ry="1.061295" transform="matrix(-.70710678 .70710678 -.70710678 -.70710678 0 0)" width="2.12259" x="-12.866457" y="-38.550594"/><rect fill="#ffe168" height="8.572632" ry="1.061295" transform="matrix(-.17247536 .98501383 -.98501383 -.17247536 0 0)" width="2.12259" x="25.895607" y="-32.984547"/><g fill="#e2e2e2" stroke="#fff" stroke-linecap="round" stroke-linejoin="round" stroke-width=".952"><rect height="2.597763" ry="1.298882" width="26.386097" x="38.404083" y="47.933361"/><rect height="2.597763" ry="1.298882" width="26.472622" x="9.267153" y="47.956238"/><rect height="2.582963" ry="1.291481" width="19.813589" x="18.532869" y="53.2258"/><rect height="2.709807" ry="1.354904" width="19.788244" x="37.071865" y="58.474281"/><rect height="2.709807" ry="1.354904" width="13.216998" x="64.220978" y="53.183167"/><rect height="2.709807" ry="1.354904" width="21.248507" x="75.358749" y="58.473816"/><rect height="2.53585" ry="1.267925" width="19.756844" x="67.516762" y="47.969193"/><rect height="2.709807" ry="1.354904" width="13.216998" x="78.065376" y="42.631889"/><rect height="2.582963" ry="1.291481" width="19.813589" x="22.588806" y="42.63192"/></g></g></svg>