<svg height="250" viewBox="0 0 105.83333 66.145886" width="400" xmlns="http://www.w3.org/2000/svg"><g transform="translate(0 -230.85407)"><path d="m32.249524 233.77507a9.1682977 9.1682977 0 0 0 -9.168235 9.16825 9.1682977 9.1682977 0 0 0 .0077.21436 9.1682977 9.1682977 0 0 0 -7.399851 8.98762 9.1682977 9.1682977 0 0 0 2.956978 6.72828 9.1682977 9.1682977 0 0 0 -1.146547 4.43517 9.1682977 9.1682977 0 0 0 2.024226 5.73272h66.022958a13.090535 13.090535 0 0 0 4.597442-9.95649 13.090535 13.090535 0 0 0 -13.090538-13.09053 13.090535 13.090535 0 0 0 -2.631255.28131 15.50422 15.50422 0 0 0 -14.868398-11.14331 15.50422 15.50422 0 0 0 -10.493634 4.11182 9.1682977 9.1682977 0 0 0 -6.398991-2.61528 9.1682977 9.1682977 0 0 0 -3.245391.59758 9.1682977 9.1682977 0 0 0 -7.166514-3.4515z" fill="#cacaca"/><g fill="#b7ccd9"><path d="m51.705529 273.75629c.730624-1.26548 3.020223-1.99033 4.420958-2.36566.322814 1.20476.892381 3.74602.161757 5.01149-.730626 1.26548-2.348791 1.69907-3.614273.96845-1.26548-.73063-1.699066-2.3488-.968442-3.61428z"/><path d="m23.318015 272.7539c.730625-1.26548 3.020221-1.99033 4.420959-2.36566.322814 1.20475.892383 3.746.161758 5.01148-.730626 1.26549-2.348794 1.69908-3.614271.96844-1.265485-.73062-1.699067-2.34879-.968446-3.61426z"/><path d="m29.715413 276.50773c.730625-1.26548 3.020219-1.99032 4.420958-2.36566.322815 1.20475.892384 3.74601.161759 5.01149-.730626 1.26548-2.348797 1.69908-3.614274.96845-1.265485-.73062-1.699067-2.3488-.968443-3.61428z"/><path d="m43.060583 276.14777c.730624-1.26548 3.020217-1.99032 4.420958-2.36566.322814 1.20475.89238 3.74602.161758 5.01149-.730626 1.26548-2.348797 1.69908-3.614275.96844-1.265484-.73061-1.699065-2.34879-.968441-3.61427z"/><path d="m38.872163 285.19682c.730624-1.26549 3.020221-1.99033 4.420958-2.36566.322815 1.20475.892384 3.746.161759 5.01148-.730627 1.26548-2.348796 1.69908-3.614272.96844-1.265485-.73062-1.69907-2.34878-.968445-3.61426z"/><path d="m68.80993 272.22685c.730625-1.26548 3.020219-1.99032 4.420958-2.36566.322815 1.20475.892382 3.74602.161756 5.0115-.730623 1.26547-2.348795 1.69907-3.614271.96843-1.265485-.73061-1.699067-2.34879-.968443-3.61427z"/><path d="m75.996524 275.81632c.730624-1.26548 3.020217-1.99032 4.420957-2.36566.322815 1.20475.892381 3.74602.161759 5.01149-.730627 1.26548-2.348798 1.69908-3.614275.96844-1.265484-.73061-1.699066-2.34879-.968441-3.61427z"/><path d="m18.31838 282.40661c.730624-1.26548 3.020218-1.99032 4.420958-2.36566.322815 1.20475.892381 3.74602.161759 5.01149-.730626 1.26548-2.348797 1.69908-3.614275.96844-1.265485-.73061-1.699065-2.34879-.968442-3.61427z"/><path d="m37.277613 273.28247c.730624-1.26548 3.020218-1.99032 4.420957-2.36566.322815 1.20475.892382 3.74602.161757 5.0115-.730624 1.26547-2.348795 1.69907-3.614272.96844-1.265485-.73062-1.699067-2.3488-.968442-3.61428z"/><path d="m29.350616 285.493c.730625-1.26548 3.020217-1.99032 4.420958-2.36566.322811 1.20476.89238 3.74602.161756 5.0115-.730626 1.26548-2.348795 1.69907-3.614273.96844-1.265483-.73062-1.699065-2.3488-.968441-3.61428z"/><path d="m45.177034 289.6352c.730625-1.26548 3.020219-1.99032 4.420958-2.36566.322813 1.20476.892382 3.74602.161756 5.0115s-2.348794 1.69907-3.614271.96844c-1.265485-.73062-1.699067-2.3488-.968443-3.61428z"/><path d="m52.243827 285.15286c.730624-1.26548 3.020218-1.99032 4.420959-2.36566.322811 1.20476.89238 3.74602.161755 5.0115-.730623 1.26547-2.348794 1.69907-3.614272.96843-1.265484-.73061-1.699066-2.34879-.968442-3.61427z"/><path d="m61.275044 286.66099c.730624-1.26548 3.02022-1.99032 4.420957-2.36566.322815 1.20476.892384 3.74601.161758 5.01149-.730625 1.26548-2.348794 1.69907-3.614271.96844-1.265485-.73062-1.699069-2.34879-.968444-3.61427z"/><path d="m21.141111 290.10973c.730624-1.26548 3.020221-1.99033 4.420957-2.36566.322815 1.20475.892384 3.746.16176 5.01148-.730627 1.26548-2.348796 1.69908-3.614273.96844-1.265484-.73062-1.699069-2.34878-.968444-3.61426z"/><path d="m60.155636 275.65085c.730624-1.26548 3.020225-1.99034 4.420958-2.36566.322813 1.20476.892384 3.74601.161758 5.01149-.730627 1.26548-2.348789 1.69906-3.614271.96843-1.265482-.73061-1.69907-2.34878-.968445-3.61426z"/></g></g></svg>