<svg height="250" viewBox="0 0 105.83333 66.145886" width="400" xmlns="http://www.w3.org/2000/svg"><g transform="translate(0 -230.85407)"><path d="m32.249524 238.71234a9.1682977 9.1682977 0 0 0 -9.168235 9.16825 9.1682977 9.1682977 0 0 0 .0077.21436 9.1682977 9.1682977 0 0 0 -7.399851 8.98762 9.1682977 9.1682977 0 0 0 2.956978 6.72828 9.1682977 9.1682977 0 0 0 -1.146547 4.43517 9.1682977 9.1682977 0 0 0 2.024226 5.73272h66.022958a13.090535 13.090535 0 0 0 4.597442-9.95649 13.090535 13.090535 0 0 0 -13.090538-13.09053 13.090535 13.090535 0 0 0 -2.631255.28131 15.50422 15.50422 0 0 0 -14.868398-11.14331 15.50422 15.50422 0 0 0 -10.493634 4.11182 9.1682977 9.1682977 0 0 0 -6.398991-2.61528 9.1682977 9.1682977 0 0 0 -3.245391.59758 9.1682977 9.1682977 0 0 0 -7.166514-3.4515z" fill="#cacaca"/><g fill="#b7ccd9"><path d="m33.439948 281.93031c-.000001-1.46125 1.620425-3.23378 2.645832-4.2592.881942.88194 2.645832 2.79795 2.645832 4.2592-.000001 1.46125-1.184579 2.64584-2.645832 2.64583-1.46125.00001-2.645831-1.18458-2.645832-2.64583z"/><path d="m63.800047 286.49581c0-1.46125 1.620426-3.23379 2.645832-4.2592.881947.88194 2.645837 2.79795 2.645832 4.2592-.000001 1.46125-1.184578 2.64583-2.645833 2.64583-1.461248 0-2.64583-1.18458-2.645831-2.64583z"/><path d="m54.255386 280.91151c-.000001-1.46125 1.620425-3.23379 2.645832-4.2592.881946.88195 2.645832 2.79795 2.645831 4.2592s-1.184578 2.64583-2.645831 2.64583c-1.46125 0-2.645831-1.18458-2.645832-2.64583z"/></g></g></svg>