<svg height="250" viewBox="0 0 105.83333 66.145886" width="400" xmlns="http://www.w3.org/2000/svg"><g transform="translate(0 -230.85407)"><circle cx="53.111469" cy="269.26801" fill="#ffe168" r="22.1845"/><path d="m81.076115 265.09443a12.505183 12.505183 0 0 0 -11.471135 7.53804 10.92558 10.92558 0 0 0 -5.904547-1.74615 10.92558 10.92558 0 0 0 -1.579751.12557 8.556178 8.2929105 0 0 0 -6.713283-3.15277 8.556178 8.2929105 0 0 0 -8.392253 6.68692 10.92558 10.92558 0 0 0 -8.71988 10.68824 10.92558 10.92558 0 0 0 .699698 3.80856c.145534-.0757.308708-.12248.484725-.12248h61.061351a9.8725126 9.8725126 0 0 0 3.04426-7.10809 9.8725126 9.8725126 0 0 0 -9.872743-9.87278 9.8725126 9.8725126 0 0 0 -1.435574.1142 12.505183 12.505183 0 0 0 -11.200868-6.95926z" fill="#e2e2e2" stroke="#fff" stroke-linecap="round" stroke-linejoin="round" stroke-width="2.116667"/><g fill="#ffe168"><rect height="8.572632" ry="1.061295" transform="matrix(-.25881905 -.96592583 .96592583 -.25881905 0 0)" width="2.12259" x="-272.77655" y="5.803145"/><rect height="8.572632" ry="1.061295" transform="matrix(-.70710678 -.70710678 .70710678 -.70710678 0 0)" width="2.12259" x="-225.10457" y="-128.78224"/><rect height="8.572632" ry="1.061295" transform="scale(-1)" width="2.12259" x="-54.138157" y="-244.97409"/><rect height="8.572632" ry="1.061295" transform="matrix(-.70710678 .70710678 -.70710678 -.70710678 0 0)" width="2.12259" x="150.03122" y="-203.59019"/></g><path d="m15.210507 252.45661a8.2262732 8.2262732 0 0 0 -8.2265628 8.22622 8.2262732 8.2262732 0 0 0 .017488.49132 8.2262732 8.2262732 0 0 0 -4.8562802 7.49314 8.2262732 8.2262732 0 0 0 .3643629 2.41956h41.4031221a6.2906795 6.2906795 0 0 0 1.54141-4.11311 6.2906795 6.2906795 0 0 0 -6.290563-6.29091 6.2906795 6.2906795 0 0 0 -2.471964.51348 10.282842 10.282842 0 0 0 -9.746478-7.04583 10.282842 10.282842 0 0 0 -5.260939 1.46082 8.2262732 8.2262732 0 0 0 -6.473584-3.15469z" fill="#e2e2e2" stroke="#fff" stroke-linecap="round" stroke-linejoin="round" stroke-width="1.910901"/></g></svg>