<svg height="250" viewBox="0 0 105.83333 66.145886" width="400" xmlns="http://www.w3.org/2000/svg"><g transform="translate(0 -230.85407)"><circle cx="53.422859" cy="269.19724" fill="#ffe168" r="22.1845"/><path d="m26.121639 255.06626a9.1682976 9.1682976 0 0 0 -9.168235 9.16824 9.1682976 9.1682976 0 0 0 .0077.21437 9.1682976 9.1682976 0 0 0 -7.3998504 8.98761 9.1682976 9.1682976 0 0 0 2.9569774 6.72828 9.1682976 9.1682976 0 0 0 -1.146547 4.43517 9.1682976 9.1682976 0 0 0 2.024226 5.73273h66.022958a13.090535 13.090535 0 0 0 4.597441-9.95649 13.090535 13.090535 0 0 0 -13.090539-13.09054 13.090535 13.090535 0 0 0 -2.631253.28131 15.50422 15.50422 0 0 0 -14.868398-11.1433 15.50422 15.50422 0 0 0 -10.493635 4.11182 9.1682976 9.1682976 0 0 0 -6.39899-2.61528 9.1682976 9.1682976 0 0 0 -3.245391.59757 9.1682976 9.1682976 0 0 0 -7.166514-3.45149z" fill="#cacaca" stroke="#fff" stroke-linecap="round" stroke-linejoin="round" stroke-width="2.38125"/><path d="m72.511174 240.57538a6.5349535 6.5349535 0 0 0 -6.535185 6.53491 6.5349535 6.5349535 0 0 0 .01389.3903 6.5349535 6.5349535 0 0 0 -3.85783 5.95255 6.5349535 6.5349535 0 0 0 .28945 1.9221h32.890664a4.9973174 4.9973174 0 0 0 1.2245-3.26745 4.9973174 4.9973174 0 0 0 -4.997237-4.9975 4.9973174 4.9973174 0 0 0 -1.96373.40791 8.1686919 8.1686919 0 0 0 -7.742603-5.59721 8.1686919 8.1686919 0 0 0 -4.179292 1.16047 6.5349535 6.5349535 0 0 0 -5.142617-2.50608z" fill="#ddd" stroke="#fff" stroke-linecap="round" stroke-linejoin="round" stroke-width="1.852083"/><g fill="#ffe168"><rect height="8.572632" ry="1.061295" transform="scale(-1)" width="2.12259" x="-54.449547" y="-244.90332"/><rect height="8.572632" ry="1.061295" transform="matrix(-.70710678 .70710678 -.70710678 -.70710678 0 0)" width="2.12259" x="149.76097" y="-203.76031"/></g></g></svg>