<svg height="250" viewBox="0 0 105.83333 66.145886" width="400" xmlns="http://www.w3.org/2000/svg"><g transform="translate(0 -230.85407)"><g fill="#ffe168"><circle cx="60.326859" cy="264.01913" r="22.1845"/><rect height="8.572632" ry="1.061295" width="2.12259" x="60.530659" y="288.12875"/><rect height="8.572632" ry="1.061295" transform="matrix(.25881905 -.96592583 .96592583 .25881905 0 0)" width="2.12259" x="-240.46742" y="150.82103"/><rect height="8.572632" ry="1.061295" transform="matrix(-.25881905 -.96592583 .96592583 -.25881905 0 0)" width="2.12259" x="-269.57397" y="14.131183"/><rect height="8.572632" ry="1.061295" transform="matrix(-.70710678 -.70710678 .70710678 -.70710678 0 0)" width="2.12259" x="-226.4951" y="-119.96866"/><rect height="8.572632" ry="1.061295" transform="scale(-1)" width="2.12259" x="-61.353546" y="-239.7252"/><rect height="8.572632" ry="1.061295" transform="matrix(-.70710678 .70710678 -.70710678 -.70710678 0 0)" width="2.12259" x="141.21764" y="-204.98071"/></g><path d="m24.969913 249.66442a6.5349535 6.5349535 0 0 0 -6.535184 6.53491 6.5349535 6.5349535 0 0 0 .01389.3903 6.5349535 6.5349535 0 0 0 -3.857831 5.95255 6.5349535 6.5349535 0 0 0 .28945 1.9221h32.890656a4.9973173 4.9973173 0 0 0 1.224495-3.26745 4.9973173 4.9973173 0 0 0 -4.997225-4.9975 4.9973173 4.9973173 0 0 0 -1.963729.40791 8.1686919 8.1686919 0 0 0 -7.742603-5.59721 8.1686919 8.1686919 0 0 0 -4.179292 1.16047 6.5349535 6.5349535 0 0 0 -5.142617-2.50608z" fill="#e2e2e2" stroke="#fff" stroke-linecap="round" stroke-linejoin="round" stroke-width="1.5875"/><rect fill="#ffe168" height="8.572632" ry="1.061295" transform="matrix(.70710678 .70710678 -.70710678 .70710678 0 0)" width="2.12259" x="233.6916" y="167.62506"/><rect fill="#ffe168" height="8.572632" ry="1.061295" transform="matrix(.5 .8660254 -.8660254 .5 0 0)" width="2.12259" x="253.96329" y="103.45128"/><path d="m70.389644 272.61499a4.9952389 4.9952389 0 0 0 -4.995416 4.9952 4.9952389 4.9952389 0 0 0 .01062.29834 4.9952389 4.9952389 0 0 0 -2.94888 4.55006 4.9952389 4.9952389 0 0 0 .221252 1.46923h25.14122a3.8198886 3.8198886 0 0 0 .935992-2.4976 3.8198886 3.8198886 0 0 0 -3.819819-3.82003 3.8198886 3.8198886 0 0 0 -1.501055.3118 6.2440488 6.2440488 0 0 0 -5.918349-4.27844 6.2440488 6.2440488 0 0 0 -3.1946.88705 4.9952389 4.9952389 0 0 0 -3.930954-1.91561z" fill="#e2e2e2" stroke="#fff" stroke-linecap="round" stroke-linejoin="round" stroke-width="1.27134"/></g></svg>