<svg height="250" viewBox="0 0 105.83333 66.145886" width="400" xmlns="http://www.w3.org/2000/svg"><g transform="translate(0 -230.85407)"><path d="m32.249524 232.7618a9.1682977 9.1682977 0 0 0 -9.168235 9.16825 9.1682977 9.1682977 0 0 0 .0077.21436 9.1682977 9.1682977 0 0 0 -7.399851 8.98762 9.1682977 9.1682977 0 0 0 2.956978 6.72828 9.1682977 9.1682977 0 0 0 -1.146547 4.43517 9.1682977 9.1682977 0 0 0 2.024226 5.73272h66.022958a13.090535 13.090535 0 0 0 4.597442-9.95649 13.090535 13.090535 0 0 0 -13.090538-13.09053 13.090535 13.090535 0 0 0 -2.631255.28131 15.50422 15.50422 0 0 0 -14.868398-11.14331 15.50422 15.50422 0 0 0 -10.493634 4.11182 9.1682977 9.1682977 0 0 0 -6.398991-2.61528 9.1682977 9.1682977 0 0 0 -3.245391.59758 9.1682977 9.1682977 0 0 0 -7.166514-3.4515z" fill="#cacaca"/><g fill="#b7ccd9"><path d="m51.705529 272.74302c.730624-1.26548 3.020223-1.99033 4.420958-2.36566.322814 1.20476.892381 3.74602.161757 5.01149-.730626 1.26548-2.348791 1.69907-3.614273.96845-1.26548-.73063-1.699066-2.3488-.968442-3.61428z"/><path d="m23.318015 271.74063c.730625-1.26548 3.020221-1.99033 4.420959-2.36566.322814 1.20475.892383 3.746.161758 5.01148-.730626 1.26549-2.348794 1.69908-3.614271.96844-1.265485-.73062-1.699067-2.34879-.968446-3.61426z"/><path d="m29.715413 275.49446c.730625-1.26548 3.020219-1.99032 4.420958-2.36566.322815 1.20475.892384 3.74601.161759 5.01149-.730626 1.26548-2.348797 1.69908-3.614274.96845-1.265485-.73062-1.699067-2.3488-.968443-3.61428z"/><path d="m34.001724 289.84379c.730624-1.26549 3.020221-1.99033 4.420958-2.36566.322815 1.20475.892384 3.746.161759 5.01148-.730627 1.26548-2.348796 1.69908-3.614272.96844-1.265485-.73062-1.69907-2.34878-.968445-3.61426z"/><path d="m68.80993 271.21358c.730625-1.26548 3.020219-1.99032 4.420958-2.36566.322815 1.20475.892382 3.74602.161756 5.0115-.730623 1.26547-2.348795 1.69907-3.614271.96843-1.265485-.73061-1.699067-2.34879-.968443-3.61427z"/><path d="m75.996524 274.80305c.730624-1.26548 3.020217-1.99032 4.420957-2.36566.322815 1.20475.892381 3.74602.161759 5.01149-.730627 1.26548-2.348798 1.69908-3.614275.96844-1.265484-.73061-1.699066-2.34879-.968441-3.61427z"/><path d="m18.31838 281.39334c.730624-1.26548 3.020218-1.99032 4.420958-2.36566.322815 1.20475.892381 3.74602.161759 5.01149-.730626 1.26548-2.348797 1.69908-3.614275.96844-1.265485-.73061-1.699065-2.34879-.968442-3.61427z"/><path d="m37.277613 272.2692c.730624-1.26548 3.020218-1.99032 4.420957-2.36566.322815 1.20475.892382 3.74602.161757 5.0115-.730624 1.26547-2.348795 1.69907-3.614272.96844-1.265485-.73062-1.699067-2.3488-.968442-3.61428z"/><path d="m32.885291 282.74187c.730625-1.26548 3.020217-1.99032 4.420958-2.36566.322811 1.20476.89238 3.74602.161756 5.0115-.730626 1.26548-2.348795 1.69907-3.614273.96844-1.265483-.73062-1.699065-2.3488-.968441-3.61428z"/><path d="m47.151536 291.12297c.730625-1.26548 3.020219-1.99032 4.420958-2.36566.322813 1.20476.892382 3.74602.161756 5.0115s-2.348794 1.69907-3.614271.96844c-1.265485-.73062-1.699067-2.3488-.968443-3.61428z"/><path d="m52.243827 284.13959c.730624-1.26548 3.020218-1.99032 4.420959-2.36566.322811 1.20476.89238 3.74602.161755 5.0115-.730623 1.26547-2.348794 1.69907-3.614272.96843-1.265484-.73061-1.699066-2.34879-.968442-3.61427z"/><path d="m61.275044 285.64772c.730624-1.26548 3.02022-1.99032 4.420957-2.36566.322815 1.20476.892384 3.74601.161758 5.01149-.730625 1.26548-2.348794 1.69907-3.614271.96844-1.265485-.73062-1.699069-2.34879-.968444-3.61427z"/><path d="m21.141111 289.09646c.730624-1.26548 3.020221-1.99033 4.420957-2.36566.322815 1.20475.892384 3.746.16176 5.01148-.730627 1.26548-2.348796 1.69908-3.614273.96844-1.265484-.73062-1.699069-2.34878-.968444-3.61426z"/><path d="m60.155636 274.63758c.730624-1.26548 3.020225-1.99034 4.420958-2.36566.322813 1.20476.892384 3.74601.161758 5.01149-.730627 1.26548-2.348789 1.69906-3.614271.96843-1.265482-.73061-1.69907-2.34878-.968445-3.61426z"/></g><path d="m45.406976 268.67269-4.594008 13.22258h5.291666l-5.291666 11.90625 13.229166-14.55208h-9.260417l6.614584-10.58333z" fill="#ffe168"/><path d="m67.517425 279.91992c.730624-1.26548 3.02022-1.99032 4.420957-2.36566.322815 1.20476.892384 3.74601.161758 5.01149-.730625 1.26548-2.348794 1.69907-3.614271.96844-1.265485-.73062-1.699069-2.34879-.968444-3.61427z" fill="#b7ccd9"/></g></svg>