<svg height="250" viewBox="0 0 105.83333 66.145886" width="400" xmlns="http://www.w3.org/2000/svg"><g fill="#c8c8c8" transform="translate(0 -230.85407)"><path d="m62.967087 239.7666c-3.97187.001-7.622177 2.18366-9.503296 5.68182-1.24106-1.11323-2.84882-1.7301-4.516004-1.73271-2.258934.001-4.368916 1.1273-5.627047 3.00344-1.807399-2.4634-4.678567-3.92048-7.733895-3.92483-5.307028.00001-9.609223 4.3022-9.609231 9.60923.004 1.00042.164264 1.99407.474906 2.94504-2.869241 2.20287-4.552371 5.61362-4.555277 9.23096.0026 3.09523 1.236797 6.06219 3.430281 8.24601 16.626768.0303 32.790488 0 49.793344 0 .388086-.43368.740462-.89804 1.053682-1.38854 4.836001-1.17348 8.242994-5.50106 8.248592-10.4774-.0029-5.91318-4.763008-10.72327-10.675835-10.78797-.209234-5.80361-4.972838-10.40144-10.78022-10.40505z"/><rect height="2.698487" ry="1.349243" width="52.918381" x="25.380283" y="274.81967"/><rect height="2.698487" ry="1.349243" width="51.603642" x="21.40032" y="280.11697"/><rect height="2.698487" ry="1.349243" width="51.603642" x="27.998049" y="285.39499"/></g></svg>